<?xml version="1.0" standalone="no"?>
<!DOCTYPE svg PUBLIC "-//W3C//DTD SVG 20010904//EN"
 "http://www.w3.org/TR/2001/REC-SVG-20010904/DTD/svg10.dtd">
<svg version="1.0" xmlns="http://www.w3.org/2000/svg"
 width="640.000000pt" height="640.000000pt" viewBox="0 0 640.000000 640.000000"
 preserveAspectRatio="xMidYMid meet">
<metadata>
Created by potrace 1.14, written by Peter Selinger 2001-2017
</metadata>
<g transform="translate(0.000000,640.000000) scale(0.100000,-0.100000)"
fill="#000000" stroke="none">
<path d="M0 4845 c0 -1005 4 -1555 10 -1555 6 0 10 -8 10 -17 0 -15 -2 -16
-10 -3 -6 10 -9 6 -8 -17 1 -27 3 -30 15 -17 17 16 27 19 18 4 -6 -10 7 -14
34 -11 8 2 10 -2 5 -10 -4 -8 -3 -10 4 -5 7 4 13 2 13 -3 1 -6 2 -15 3 -21 0
-5 7 -15 15 -22 11 -11 13 -8 7 15 -5 21 -4 27 5 21 8 -4 9 -3 5 5 -4 6 -11 9
-16 6 -4 -3 -13 2 -19 9 -8 10 -9 16 -1 21 5 3 10 1 10 -4 0 -16 23 -13 46 5
10 8 12 12 4 8 -10 -5 -9 -1 3 14 11 12 25 18 35 15 11 -5 13 -3 7 7 -5 9 -4
11 3 6 8 -5 9 -13 2 -26 -7 -13 -6 -19 5 -23 10 -4 12 -1 8 10 -4 10 -2 14 7
11 20 -6 24 -27 6 -34 -9 -3 -24 -3 -33 1 -23 8 -28 7 -28 -4 0 -5 -3 -13 -8
-17 -4 -4 -7 -1 -7 6 0 7 -3 10 -6 7 -4 -4 -2 -13 5 -20 9 -11 6 -21 -11 -43
l-22 -29 22 19 c22 19 22 19 22 0 0 -16 2 -16 10 -4 5 9 5 19 -2 27 -8 10 -5
13 13 14 16 1 18 3 7 6 -10 2 -15 10 -11 19 5 13 8 12 24 -2 11 -9 19 -13 19
-8 0 5 5 2 10 -6 8 -12 10 -9 10 13 0 16 4 26 9 22 5 -3 13 0 17 6 5 8 3 9 -6
4 -9 -6 -11 -4 -5 4 4 8 18 11 36 7 21 -4 29 -2 29 9 0 8 9 19 20 25 14 8 20
8 20 0 0 -6 -7 -13 -15 -16 -9 -4 -15 -19 -15 -36 0 -18 4 -27 11 -22 6 3 9
14 6 25 -4 15 0 17 27 14 28 -3 29 -3 13 10 -13 9 -15 15 -6 20 7 5 16 1 21
-9 5 -9 16 -16 23 -16 8 0 15 -4 15 -9 0 -5 -13 -7 -30 -6 -16 1 -30 1 -30 -1
0 -9 36 -44 45 -44 5 0 4 4 -4 9 -7 5 -10 14 -7 20 4 6 12 9 17 6 5 -4 12 1
15 10 5 13 9 13 22 3 10 -8 13 -9 9 -1 -4 6 0 19 9 27 9 9 13 23 10 31 -7 19
24 35 49 24 16 -6 14 -8 -13 -8 -21 -1 -31 -5 -27 -12 4 -6 13 -8 21 -5 8 3
13 2 13 -2 -3 -21 14 -50 27 -45 13 5 13 8 -1 23 -24 27 -17 34 9 9 13 -13 22
-29 19 -35 -7 -19 -36 -22 -50 -4 -11 13 -12 13 -13 -1 0 -9 7 -19 15 -23 8
-3 12 -12 9 -20 -3 -8 0 -17 7 -21 9 -6 10 -1 7 19 -3 14 -1 26 3 26 5 0 9 -4
9 -10 0 -5 5 -10 11 -10 6 0 9 7 5 15 -6 18 -1 19 24 5 13 -7 21 -7 25 0 3 5
14 10 22 10 13 0 10 -7 -12 -30 -16 -16 -26 -32 -23 -35 2 -3 13 4 23 15 18
20 41 28 30 11 -3 -5 -1 -12 4 -16 10 -5 8 17 -4 55 -6 20 27 46 44 35 5 -3
12 4 16 15 3 11 11 20 16 20 11 0 8 -32 -4 -41 -8 -6 29 -49 44 -49 6 0 3 7
-5 16 -18 17 -21 28 -6 19 6 -3 10 -2 10 4 0 5 -4 13 -10 16 -5 3 -10 12 -9
18 0 9 2 9 5 0 4 -9 13 -9 30 -2 33 12 33 12 29 -8 -1 -11 -10 -17 -21 -16
-11 1 -13 0 -6 -3 6 -3 12 -14 12 -25 0 -17 3 -17 20 -7 12 8 15 15 8 19 -12
7 -2 29 13 29 12 0 12 -36 -1 -60 -7 -13 -5 -21 8 -31 9 -7 14 -9 10 -5 -11
13 11 36 28 29 7 -3 11 -9 8 -14 -3 -5 0 -9 6 -9 6 0 8 12 5 31 -5 25 -3 30 9
26 17 -7 31 8 17 18 -6 3 -19 0 -30 -7 -15 -9 -17 -15 -9 -25 14 -17 0 -17
-16 0 -12 12 -5 57 8 57 3 0 3 -7 -1 -16 -4 -12 -2 -15 8 -12 8 3 13 12 13 21
-1 9 2 14 7 11 5 -3 9 0 9 5 0 6 8 11 19 11 10 0 26 10 35 22 9 14 15 17 13 8
-1 -8 -10 -23 -21 -32 -10 -10 -20 -29 -22 -43 -1 -14 -7 -32 -13 -39 -8 -10
-7 -17 6 -27 16 -13 17 -12 5 3 -14 18 -10 22 31 32 20 5 27 3 27 -9 0 -8 -5
-14 -11 -13 -6 2 -14 -3 -16 -10 -4 -11 -1 -12 15 -3 11 6 22 21 26 35 4 18
11 23 25 19 16 -4 18 -9 10 -30 -11 -31 -12 -40 0 -27 15 15 16 47 2 74 -8 14
-10 22 -6 18 13 -12 34 12 28 30 -6 14 -5 15 9 2 11 -11 12 -17 4 -22 -6 -4
-7 -8 -2 -8 5 0 3 -6 -3 -14 -8 -10 -9 -16 -1 -21 5 -3 10 0 10 7 0 10 2 10 9
-1 8 -12 12 -12 25 2 20 19 21 34 2 18 -17 -14 -29 0 -12 14 25 22 45 17 44
-12 -1 -49 2 -63 12 -63 5 0 6 7 3 17 -4 10 -2 14 4 10 6 -4 10 0 9 10 -1 10
8 17 23 18 21 2 22 0 7 -10 -19 -14 -21 -35 -3 -35 6 -1 -1 -11 -17 -24 -20
-17 -27 -29 -22 -41 5 -14 9 -15 21 -5 7 6 11 19 8 27 -5 13 -2 15 12 10 15
-6 17 -3 12 22 -4 17 -2 33 3 36 6 3 10 -2 10 -12 0 -14 2 -15 9 -5 6 10 10 9
14 -7 4 -15 0 -21 -11 -22 -11 0 -12 -2 -4 -6 13 -5 17 -24 5 -22 -32 5 -45
-34 -15 -46 11 -4 13 1 8 20 -5 19 -3 23 8 19 11 -4 17 3 22 23 4 15 12 31 17
35 12 7 -10 41 -22 33 -4 -2 -20 8 -35 22 -26 24 -28 24 -47 7 -25 -22 -24
-13 1 16 19 22 21 23 34 5 7 -10 18 -15 24 -11 7 4 12 1 12 -6 0 -19 57 -50
64 -35 2 7 4 0 3 -14 -1 -17 -7 -26 -17 -25 -11 1 -15 -8 -14 -34 0 -20 -6
-40 -14 -46 -13 -9 -12 -11 2 -11 9 0 16 5 16 10 0 5 7 7 15 3 8 -3 15 -1 15
4 0 15 48 12 53 -2 3 -7 4 0 4 16 -1 16 4 30 11 32 7 1 8 0 2 -3 -18 -9 -11
-23 13 -23 21 -1 22 -1 3 -15 -11 -8 -16 -15 -10 -15 5 -1 0 -9 -11 -18 -11
-10 -21 -24 -23 -32 -2 -8 -8 -20 -15 -25 -7 -6 -13 -17 -15 -25 -2 -8 -9 -22
-16 -30 -17 -20 -62 -98 -49 -85 5 6 45 64 88 130 43 66 98 146 123 178 l44
58 -40 82 c-42 86 -82 203 -82 242 0 14 22 42 60 79 l60 57 -104 312 c-203
604 -284 881 -264 904 6 7 16 13 22 13 6 -1 54 -42 106 -91 267 -254 730 -679
740 -679 6 0 85 49 176 110 121 80 172 109 187 105 67 -16 792 -133 799 -129
23 15 -6 -65 -86 -240 -20 -43 -35 -82 -34 -86 2 -4 48 30 103 77 314 266 900
663 977 663 7 0 19 -12 26 -27 7 -16 20 -41 29 -58 10 -18 16 -50 16 -80 -2
-65 -37 -323 -69 -500 -45 -248 -167 -714 -188 -720 -6 -1 -29 -8 -51 -14 -22
-6 -68 -29 -103 -52 -62 -41 -67 -42 -267 -73 -112 -17 -207 -35 -212 -40 -4
-5 -3 -6 4 -3 6 4 18 4 27 1 14 -5 13 -10 -9 -30 -14 -13 -25 -29 -25 -35 0
-7 -2 -10 -5 -7 -8 7 -85 -67 -85 -81 0 -6 -6 -11 -12 -11 -7 0 -22 -13 -32
-28 l-19 -27 26 24 c45 41 41 15 -4 -29 -31 -30 -49 -40 -63 -36 -70 17 -229
37 -342 43 l-131 6 -71 -114 c-100 -161 -108 -171 -134 -185 -18 -10 -20 -14
-8 -18 44 -14 230 -39 331 -43 l116 -6 72 38 c43 23 84 53 102 76 17 22 36 39
43 39 6 0 34 20 63 45 28 25 58 45 66 45 20 0 265 -62 445 -112 79 -22 146
-38 148 -35 2 2 -30 14 -73 26 -71 21 -134 51 -106 51 7 0 14 -4 17 -9 3 -5
15 -7 26 -4 11 3 20 1 20 -4 0 -5 14 -10 32 -11 18 -2 34 -5 36 -7 3 -2 13 0
22 5 13 7 20 6 24 -5 4 -11 13 -14 32 -9 22 6 25 4 19 -7 -7 -12 -6 -12 7 -1
13 10 17 10 21 0 4 -10 8 -10 16 2 8 12 12 9 21 -15 6 -17 18 -43 25 -59 8
-16 12 -32 10 -37 -3 -4 -96 -72 -208 -150 -132 -93 -223 -151 -262 -165 -69
-25 -267 -108 -625 -261 -325 -138 -356 -152 -562 -256 l-178 -89 -57 7 c-114
13 -243 50 -243 68 0 7 14 12 30 13 17 1 42 12 57 25 33 31 93 123 93 144 0 9
-11 37 -24 63 l-24 47 -151 39 -150 39 -36 -27 c-19 -15 -43 -39 -52 -52 -15
-24 -15 -29 1 -80 13 -40 33 -72 79 -120 l61 -66 -51 5 c-28 3 -60 10 -72 16
-53 29 -96 196 -88 345 4 86 3 95 -26 153 -16 35 -35 67 -42 73 -33 27 -365
112 -365 93 0 -9 29 -33 39 -33 6 0 11 -4 11 -9 0 -4 20 -19 45 -32 29 -15 45
-31 45 -43 0 -12 5 -16 15 -12 9 3 15 0 15 -10 0 -9 -5 -12 -12 -8 -7 4 -8 3
-4 -5 6 -9 11 -9 21 -1 11 9 17 7 26 -8 7 -11 17 -19 23 -18 6 2 8 1 4 -1 -5
-3 -8 -14 -8 -26 0 -12 4 -17 8 -12 9 14 55 17 46 4 -3 -6 -12 -8 -18 -6 -7 3
-13 -1 -13 -8 0 -8 3 -14 6 -13 20 2 31 -4 31 -17 0 -8 6 -14 13 -12 6 1 13
-5 13 -13 1 -8 2 -19 3 -24 0 -5 9 -2 19 7 10 10 22 14 25 10 4 -3 -2 -13 -14
-21 -15 -10 -17 -17 -9 -27 6 -8 19 -11 28 -9 15 5 15 4 2 -8 -17 -14 -19 -27
-6 -46 10 -17 39 5 32 24 -3 7 1 18 9 24 12 10 14 6 11 -23 -2 -19 -7 -41 -12
-49 -6 -10 -5 -11 7 -1 13 10 17 0 32 -69 22 -104 43 -147 87 -176 20 -13 34
-30 32 -39 -2 -9 1 -12 7 -8 13 8 13 8 2 -33 -8 -27 -6 -34 10 -46 13 -9 17
-16 10 -21 -6 -3 -9 -11 -5 -16 3 -5 10 -7 15 -4 5 4 9 1 9 -4 0 -11 -13 -15
-38 -12 -10 2 -9 -5 4 -23 9 -14 13 -26 8 -26 -4 0 1 -6 11 -14 11 -8 24 -12
28 -9 5 3 6 -4 3 -15 -6 -18 -3 -20 23 -16 25 4 30 2 25 -10 -4 -9 0 -18 9
-22 16 -6 12 -33 -7 -46 -6 -4 -8 -9 -5 -12 3 -3 15 3 27 14 l22 21 0 -25 c0
-18 4 -24 15 -20 12 5 14 0 9 -26 -6 -26 -3 -32 15 -37 11 -3 18 -10 14 -16
-3 -6 -1 -7 6 -3 16 10 40 -11 36 -32 -1 -9 0 -11 2 -4 7 19 23 14 32 -10 8
-20 10 -21 16 -5 4 9 11 17 16 17 5 0 9 -8 9 -17 0 -11 3 -14 8 -7 10 16 36 3
40 -20 3 -17 2 -18 -12 -7 -11 9 -16 10 -16 2 0 -6 5 -11 11 -11 5 0 8 -4 5
-8 -2 -4 0 -14 6 -22 8 -13 9 -12 5 2 -7 20 8 34 48 44 27 6 28 5 17 -8 -11
-14 -9 -17 18 -23 16 -4 27 -11 24 -17 -3 -5 3 -4 14 3 27 17 39 5 18 -16 -20
-20 -20 -21 -2 -28 11 -4 13 -1 9 10 -5 12 -2 15 10 10 9 -3 16 -3 16 1 -5 30
3 52 19 51 10 0 12 -3 4 -6 -6 -2 -12 -11 -12 -19 0 -9 4 -12 10 -9 5 3 19 1
31 -6 13 -7 19 -7 15 0 -4 5 2 15 13 20 27 15 38 14 19 -2 -8 -6 -18 -21 -22
-31 -6 -19 -6 -19 11 -4 22 20 79 36 69 19 -4 -6 -3 -11 3 -11 5 0 13 5 17 12
5 8 10 7 18 -3 6 -8 17 -14 24 -13 6 1 16 2 22 3 5 0 7 8 4 16 -4 8 -1 15 6
15 6 0 9 -4 6 -8 -2 -4 -1 -14 5 -22 5 -8 9 -10 9 -4 0 7 9 14 21 17 17 5 20
2 16 -15 -3 -11 -3 -17 0 -14 4 3 12 1 20 -5 14 -12 17 -3 13 35 -1 16 0 16
13 5 8 -8 12 -21 9 -29 -4 -11 0 -10 16 4 14 12 27 16 39 11 36 -16 50 -14 62
8 9 17 10 18 5 2 -3 -11 -7 -24 -8 -30 -1 -5 -5 -16 -9 -23 -5 -7 -4 -12 2
-12 6 0 11 5 11 10 0 6 7 10 15 10 9 0 26 7 38 15 14 9 37 13 60 10 36 -5 37
-4 32 23 l-5 27 12 -25 c7 -14 17 -28 22 -32 6 -4 7 -10 3 -15 -5 -4 -11 -2
-15 4 -6 9 -11 7 -19 -6 -10 -16 -9 -18 8 -14 13 4 19 0 19 -11 0 -10 5 -13
16 -9 9 3 12 9 7 12 -4 3 -8 20 -8 36 0 23 5 31 18 31 9 0 17 -4 17 -8 0 -4
-4 -8 -10 -8 -5 0 -9 -6 -7 -12 2 -15 18 -28 32 -28 6 0 4 4 -3 9 -10 6 -10
10 3 21 8 7 15 8 15 3 0 -5 10 -9 23 -9 12 1 21 -4 20 -11 -2 -7 2 -13 7 -13
6 0 10 6 10 14 0 7 7 19 15 26 12 10 15 9 15 -6 1 -18 1 -18 14 -1 18 23 35
22 33 -3 -1 -11 -6 -19 -12 -16 -16 6 -12 -32 5 -47 12 -10 12 -9 2 4 -10 13
-9 19 3 29 8 7 12 16 9 21 -3 5 0 9 6 9 7 0 9 -8 5 -19 -3 -11 1 -25 9 -33 8
-8 12 -25 9 -40 -3 -14 -1 -28 5 -32 5 -3 8 6 6 22 -2 15 -1 21 2 15 3 -7 10
-13 15 -13 15 0 10 19 -11 40 -24 24 -25 43 -5 60 10 9 15 9 15 1 0 -6 -4 -11
-10 -11 -5 0 -10 -7 -10 -15 0 -18 20 -20 20 -2 1 6 7 -3 15 -21 15 -34 41
-45 30 -13 -10 33 39 50 62 21 8 -11 8 -19 1 -28 -6 -7 -7 -16 -3 -20 4 -4 10
-2 12 5 3 9 10 9 29 1 13 -6 24 -15 24 -20 0 -4 7 -8 15 -8 23 0 18 16 -12 39
-22 16 -24 20 -10 21 9 0 17 -6 17 -12 1 -8 5 -7 13 4 12 15 14 15 25 -3 8
-13 9 -19 1 -19 -6 0 -8 -9 -4 -21 5 -15 4 -19 -4 -15 -7 5 -11 -2 -11 -16 0
-17 3 -19 9 -9 5 7 14 10 20 6 9 -5 7 -11 -6 -21 -17 -13 -17 -14 2 -7 33 10
38 15 24 23 -10 7 -10 11 0 24 8 9 18 16 23 16 6 0 4 -8 -3 -17 -12 -15 -12
-16 3 -10 10 3 20 2 23 -3 3 -5 12 -7 20 -3 11 4 13 1 8 -12 -5 -15 -2 -17 15
-13 12 4 20 2 16 -3 -3 -5 -11 -9 -17 -9 -7 0 -18 -9 -25 -20 -7 -12 -8 -20
-2 -20 5 0 10 -7 10 -16 0 -24 28 1 32 28 2 12 10 23 18 26 12 4 13 2 3 -9
-13 -13 -19 -38 -6 -26 3 4 12 2 20 -4 10 -9 18 -7 34 7 13 12 19 14 17 5 -2
-7 5 -15 15 -16 11 -2 17 1 14 9 -5 13 20 53 28 45 2 -3 1 -18 -4 -35 -5 -19
-14 -29 -27 -29 -13 0 -19 -7 -20 -23 -1 -13 -6 -28 -13 -35 -14 -14 -14 -37
0 -37 6 0 9 7 5 15 -6 16 18 17 42 2 7 -5 12 -3 12 3 0 6 -7 13 -15 16 -8 4
-15 14 -15 24 0 16 3 17 25 7 14 -7 23 -18 20 -24 -2 -7 2 -13 10 -13 25 0 15
41 -11 51 -7 2 -3 12 9 24 19 20 19 20 13 -2 -5 -14 -3 -23 3 -23 6 0 11 -9
11 -20 0 -18 5 -20 40 -16 30 3 40 1 40 -10 0 -8 5 -14 11 -14 5 0 7 -5 4 -10
-4 -7 -14 -2 -26 11 -19 22 -20 22 -33 3 -8 -10 -12 -22 -10 -26 9 -14 -4 -8
-22 10 -17 16 -17 16 -11 0 4 -11 0 -21 -11 -28 -14 -8 -15 -11 -3 -19 8 -5
12 -18 8 -30 -3 -12 -2 -19 3 -16 12 7 19 45 9 45 -5 0 -9 4 -9 10 0 12 22 9
31 -4 10 -13 29 2 23 18 -8 22 9 25 29 6 17 -17 18 -18 1 -17 -11 1 -20 -6
-22 -17 -2 -11 0 -16 7 -12 6 4 11 2 11 -3 0 -6 -5 -11 -10 -11 -7 0 -7 -7 0
-21 12 -21 7 -49 -8 -49 -5 0 -8 11 -7 25 4 33 -5 66 -16 59 -5 -3 -7 -9 -4
-14 3 -5 -2 -21 -11 -35 l-16 -25 -29 21 c-16 11 -29 16 -29 11 0 -6 7 -13 16
-16 9 -4 14 -9 11 -13 -4 -3 -2 -12 4 -20 10 -11 16 -9 35 12 l23 25 3 -23 c2
-14 9 -21 21 -21 9 1 17 -2 17 -7 0 -14 31 3 38 21 6 16 9 15 26 -7 18 -25 18
-25 -2 -14 -24 13 -46 -7 -36 -33 8 -21 20 -20 33 2 10 16 10 16 11 0 0 -10 5
-18 11 -18 8 0 9 -4 0 -13 -6 -8 -8 -17 -4 -20 3 -4 1 -7 -6 -7 -8 0 -10 7 -6
20 3 11 3 20 0 20 -4 0 -18 -9 -32 -20 -20 -15 -22 -20 -9 -20 10 0 14 -5 11
-11 -4 -6 -13 -8 -20 -5 -8 3 -17 -7 -24 -25 -5 -16 -15 -29 -20 -29 -6 0 -11
-7 -11 -16 0 -11 -5 -14 -17 -10 -10 4 -14 4 -11 0 10 -9 -17 -34 -42 -39 -11
-2 -22 0 -25 5 -3 5 -12 7 -20 4 -8 -4 -12 -10 -9 -15 3 -5 10 -7 15 -4 5 4 9
-4 10 -17 0 -21 1 -21 8 -4 4 11 20 21 36 23 16 2 40 15 53 29 14 13 29 24 33
24 14 0 10 -27 -6 -40 -8 -7 -12 -17 -9 -22 4 -6 -2 -8 -15 -3 -15 4 -21 2
-21 -9 0 -17 16 -30 23 -19 2 5 2 2 1 -4 -2 -8 7 -13 21 -13 14 0 25 -4 25 -9
0 -6 -9 -8 -20 -6 -14 3 -20 -2 -20 -16 0 -18 -2 -18 -32 -6 -18 8 -39 12 -47
9 -8 -3 -22 6 -32 19 -14 18 -19 20 -19 8 0 -9 8 -20 17 -23 14 -6 15 -9 4
-15 -9 -6 -10 -11 -2 -15 6 -4 11 -3 11 2 0 5 9 12 20 15 11 3 20 1 20 -5 0
-5 5 -6 10 -3 6 3 10 1 10 -5 0 -6 6 -8 12 -4 10 5 10 4 1 -6 -10 -11 -15 -11
-28 0 -13 11 -18 10 -30 -6 -17 -22 -20 -48 -5 -39 6 4 8 11 5 16 -7 10 8 13
18 3 9 -10 -15 -42 -28 -37 -7 2 -15 -5 -18 -16 -6 -24 -3 -25 23 -11 13 7 21
7 25 0 4 -6 1 -9 -7 -8 -7 2 -12 -3 -10 -10 1 -7 -5 -20 -13 -29 -13 -12 -13
-18 -3 -32 12 -14 11 -15 -4 -2 -10 7 -18 10 -18 5 0 -5 -7 -1 -15 10 -14 18
-15 18 -26 -6 -14 -31 -56 -34 -51 -3 2 18 1 18 -16 -3 -18 -23 -19 -23 -33
-5 -8 10 -13 16 -11 14 1 -2 -5 -13 -15 -23 -11 -13 -12 -18 -3 -18 10 0 9 -4
-1 -17 -12 -14 -12 -16 1 -11 8 3 14 15 13 27 -3 24 15 29 24 5 4 -11 8 -12
13 -4 5 7 12 -1 19 -21 8 -23 8 -35 1 -37 -13 -5 -13 -32 0 -32 6 0 10 -7 10
-15 0 -13 178 -15 1440 -15 l1440 0 0 3200 0 3200 -3200 0 -3200 0 0 -1555z
m4600 -890 c226 -79 276 -100 285 -123 3 -9 12 -131 20 -272 8 -140 17 -267
19 -281 5 -29 -18 -69 -40 -69 -7 0 -155 53 -326 119 -326 123 -388 145 -392
139 -1 -1 -18 -24 -36 -50 -18 -27 -45 -55 -59 -64 l-26 -17 27 29 c42 46 186
242 192 261 8 27 46 330 46 368 0 61 6 66 53 46 23 -10 130 -49 237 -86z
m-3534 -582 c-3 -20 -36 -31 -36 -13 0 6 5 8 10 5 6 -3 10 1 10 9 0 9 4 16 9
16 5 0 8 -8 7 -17z m225 -6 c-10 -9 -11 -8 -5 6 3 10 9 15 12 12 3 -3 0 -11
-7 -18z m-1031 3 c-18 -12 -30 -13 -30 -2 0 4 10 9 22 9 18 2 20 0 8 -7z m942
-18 c13 -25 12 -28 -2 -28 -11 0 -16 9 -15 28 0 15 1 28 2 28 1 0 8 -13 15
-28z m-681 0 c-7 -2 -18 1 -23 6 -8 8 -4 9 13 5 13 -4 18 -8 10 -11z m329 8
c0 -5 -8 -10 -17 -10 -15 0 -16 2 -3 10 19 12 20 12 20 0z m-520 -26 c0 -20
-37 -18 -45 4 -5 14 -4 15 6 5 18 -18 32 -16 25 3 -3 8 -2 12 4 9 6 -3 10 -13
10 -21z m445 16 c3 -5 1 -10 -4 -10 -6 0 -11 5 -11 10 0 6 2 10 4 10 3 0 8 -4
11 -10z m-546 -13 c8 -10 7 -14 -4 -14 -8 0 -15 6 -15 14 0 7 2 13 4 13 2 0 9
-6 15 -13z m166 3 c3 -5 0 -10 -7 -10 -9 0 -9 -3 2 -10 13 -8 13 -10 -2 -10
-11 0 -16 7 -15 20 1 21 12 26 22 10z m318 -29 c-12 -10 -20 -21 -17 -23 9
-10 -30 -33 -57 -34 -29 -1 -38 9 -19 21 6 4 8 11 5 16 -3 5 1 6 9 3 8 -3 12
-12 10 -19 -4 -9 1 -12 13 -10 10 1 17 8 15 14 -1 7 7 26 19 42 16 23 24 28
33 19 8 -8 5 -16 -11 -29z m441 27 c-3 -4 -9 -8 -15 -8 -5 0 -9 4 -9 8 0 5 7
9 15 9 8 0 12 -4 9 -9z m-1010 -13 c-4 -11 1 -15 17 -16 16 -1 19 -3 7 -6 -9
-2 -22 -17 -29 -32 -12 -27 -13 -27 -30 -10 -18 18 -16 49 3 49 7 0 6 -5 -1
-14 -9 -11 -8 -15 4 -20 9 -3 13 -2 10 3 -3 5 -1 12 5 16 6 4 8 11 5 16 -4 5
-3 14 0 19 9 15 15 12 9 -5z m317 -29 c-24 -25 -48 -30 -48 -9 0 7 7 12 16 11
9 -2 15 2 14 9 -2 7 4 10 12 7 10 -4 15 0 16 12 0 12 3 14 6 6 3 -7 -4 -24
-16 -36z m189 34 c0 -5 -5 -10 -11 -10 -5 0 -7 5 -4 10 3 6 8 10 11 10 2 0 4
-4 4 -10z m273 -5 c-3 -9 -8 -14 -10 -11 -3 3 -2 9 2 15 9 16 15 13 8 -4z
m-653 -5 c-12 -8 -12 -10 3 -15 14 -6 14 -9 2 -21 -20 -20 -24 -17 -21 14 5
34 4 32 19 32 8 0 7 -3 -3 -10z m334 -9 c-22 -21 -27 -21 -18 3 3 9 13 16 22
16 13 0 12 -3 -4 -19z m236 15 c0 -7 -40 -14 -44 -7 -3 4 6 8 20 9 13 1 24 0
24 -2z m31 -23 c-8 -15 -10 -15 -11 -2 0 17 10 32 18 25 2 -3 -1 -13 -7 -23z
m174 17 c3 -5 1 -10 -4 -10 -6 0 -11 5 -11 10 0 6 2 10 4 10 3 0 8 -4 11 -10z
m-148 -15 c0 -8 -4 -15 -9 -15 -10 0 -11 14 -1 23 9 10 10 9 10 -8z m543 -17
c0 -5 -7 -3 -15 6 -8 8 -15 18 -15 22 0 3 7 1 15 -6 8 -7 15 -17 15 -22z
m-1369 -10 c13 3 11 -11 -5 -33 -13 -18 -14 -18 -12 5 0 14 -4 24 -9 23 -6 -1
-12 8 -12 20 -2 22 -2 22 13 2 9 -11 20 -19 25 -17z m169 28 c0 -11 -19 -15
-25 -6 -3 5 1 10 9 10 9 0 16 -2 16 -4z m1119 1 c-2 -1 -12 -9 -22 -16 -15
-12 -17 -12 -11 3 3 9 13 16 22 16 8 0 13 -1 11 -3z m22 -24 c-12 -20 -14 -14
-5 12 4 9 9 14 11 11 3 -2 0 -13 -6 -23z m-328 3 c7 -18 -9 -31 -46 -40 -26
-6 -27 -5 -17 13 5 11 16 23 23 27 9 6 9 5 0 -7 -10 -12 -8 -15 7 -15 12 0 17
6 15 18 -4 21 10 24 18 4z m2867 -11 c-14 -8 -29 -14 -35 -14 -5 0 1 6 15 14
14 8 30 14 35 14 6 0 -1 -6 -15 -14z m-2525 -25 c-4 -13 -2 -20 7 -20 10 0 9
-3 -2 -10 -11 -7 -11 -10 -2 -10 7 0 10 -4 7 -10 -19 -30 -34 14 -19 54 9 23
16 20 9 -4z m2461 -5 c-11 -8 -24 -15 -30 -15 -5 0 -1 7 10 15 10 8 24 14 29
14 6 0 1 -6 -9 -14z m-2403 -21 c-4 -12 -2 -15 8 -12 8 3 13 11 12 17 -2 6 2
11 7 11 11 0 13 -11 4 -34 -8 -22 -27 -20 -41 3 -12 19 -11 21 14 30 1 1 0 -6
-4 -15z m-572 -17 c-10 -9 -11 -8 -5 6 3 10 9 15 12 12 3 -3 0 -11 -7 -18z
m483 -8 c-2 -4 1 -11 8 -15 7 -5 4 -10 -12 -16 -12 -5 -25 -6 -28 -3 -3 3 0 5
6 5 6 0 9 8 7 18 -2 11 3 19 10 19 8 0 12 -4 9 -8z m2299 -466 c-7 -2 -19 -2
-25 0 -7 3 -2 5 12 5 14 0 19 -2 13 -5z m897 -322 c0 -8 -21 -62 -92 -241 -16
-41 -51 -123 -76 -182 l-47 -108 -40 1 c-22 1 -62 6 -90 12 -49 12 -50 13 -53
51 -4 47 15 196 29 233 l10 27 25 -27 c14 -15 26 -27 27 -27 2 0 37 33 79 73
114 108 212 196 221 197 4 0 7 -4 7 -9z m-3130 -211 c0 -5 -4 -10 -10 -10 -5
0 -10 5 -10 10 0 6 5 10 10 10 6 0 10 -4 10 -10z m60 -140 c0 -5 -5 -10 -11
-10 -5 0 -7 5 -4 10 3 6 8 10 11 10 2 0 4 -4 4 -10z m237 -76 c-5 -5 -57 13
-57 20 0 3 14 0 31 -6 16 -6 28 -12 26 -14z m42 -254 c62 -19 129 -50 74 -35
-28 8 -30 -10 -7 -45 l17 -25 -22 21 c-12 11 -24 29 -25 40 -2 13 -19 24 -56
36 -50 17 -73 28 -55 28 4 0 38 -9 74 -20z m-55 -49 c3 -5 -1 -14 -8 -20 -12
-10 -14 -9 -11 6 2 10 4 19 4 21 2 5 10 2 15 -7z m31 -123 c-1 -13 -5 -22 -8
-20 -4 1 -12 2 -19 2 -6 0 -3 9 7 20 22 25 22 25 20 -2z m40 2 c3 -5 1 -10 -4
-10 -6 0 -11 5 -11 10 0 6 2 10 4 10 3 0 8 -4 11 -10z m123 -226 c-11 -11 -18
-12 -22 -5 -4 6 0 14 8 17 9 3 13 11 9 18 -3 6 0 6 8 -2 11 -10 11 -15 -3 -28z
m274 -111 c-6 -3 -10 -9 -6 -14 8 -14 -10 -11 -32 5 -18 14 -17 15 16 14 19
-1 29 -3 22 -5z m438 -33 c0 -5 -4 -10 -10 -10 -5 0 -10 5 -10 10 0 6 5 10 10
10 6 0 10 -4 10 -10z m55 0 c-3 -5 -11 -10 -16 -10 -6 0 -7 5 -4 10 3 6 11 10
16 10 6 0 7 -4 4 -10z m365 0 c-8 -5 -19 -10 -25 -10 -5 0 -3 5 5 10 8 5 20
10 25 10 6 0 3 -5 -5 -10z m-600 -10 c0 -5 -2 -10 -4 -10 -3 0 -8 5 -11 10 -3
6 -1 10 4 10 6 0 11 -4 11 -10z m320 0 c-18 -12 -30 -13 -30 -2 0 4 10 9 22 9
18 2 20 0 8 -7z m247 -16 c-7 -7 -37 7 -37 17 0 6 9 5 21 -1 11 -7 19 -14 16
-16z m198 16 c-3 -5 -11 -10 -16 -10 -6 0 -7 5 -4 10 3 6 11 10 16 10 6 0 7
-4 4 -10z m-20 -50 c-2 -31 -15 -37 -15 -7 0 15 4 27 8 27 5 0 8 -9 7 -20z
m255 -30 c0 -5 -7 -10 -15 -10 -8 0 -15 5 -15 10 0 6 7 10 15 10 8 0 15 -4 15
-10z m28 -14 c-20 -15 -14 -28 10 -19 10 4 13 2 8 -5 -4 -7 -13 -12 -21 -12
-23 0 -29 22 -10 37 24 17 36 17 13 -1z m142 -63 c0 -14 -15 -29 -33 -36 -17
-6 -17 -6 0 18 18 24 33 32 33 18z m-50 -11 c0 -4 -9 -8 -19 -8 -11 0 -17 4
-15 8 3 4 12 8 20 8 8 0 14 -4 14 -8z m220 -42 c0 -5 -4 -10 -10 -10 -5 0 -10
5 -10 10 0 6 5 10 10 10 6 0 10 -4 10 -10z m-213 -6 c-3 -3 -12 -4 -19 -1 -8
3 -5 6 6 6 11 1 17 -2 13 -5z m-77 -8 c0 -3 -4 -8 -10 -11 -5 -3 -10 -1 -10 4
0 6 5 11 10 11 6 0 10 -2 10 -4z m250 -26 c8 -5 10 -10 4 -10 -7 0 -14 -9 -17
-21 -4 -13 -10 -18 -17 -14 -9 6 -9 9 -1 15 7 3 9 14 5 23 -7 19 3 22 26 7z
m62 -27 c-6 -2 -10 -9 -7 -14 4 -5 -1 -6 -10 -2 -13 5 -14 7 -3 14 7 5 18 8
23 8 6 0 4 -3 -3 -6z m68 -67 c0 -2 -7 -7 -16 -10 -8 -3 -12 -2 -9 4 6 10 25
14 25 6z m-52 -61 c-6 -13 -15 -22 -21 -18 -5 3 -4 9 3 13 7 4 9 13 6 19 -4 6
-1 11 8 11 13 0 14 -4 4 -25z m-31 -31 c-3 -3 -12 -4 -19 -1 -8 3 -5 6 6 6 11
1 17 -2 13 -5z m201 -111 c-6 -7 -16 -13 -22 -13 -6 0 -3 5 6 11 10 5 15 17
12 27 -5 14 -4 14 4 2 8 -10 8 -18 0 -27z m-118 -78 c11 -13 10 -14 -4 -9 -9
3 -16 10 -16 15 0 13 6 11 20 -6z m-47 -19 c22 -17 22 -22 -3 -22 -10 0 -17 2
-15 5 3 2 0 10 -6 18 -15 17 1 16 24 -1z m-48 -6 c3 -5 1 -10 -4 -10 -6 0 -11
5 -11 10 0 6 2 10 4 10 3 0 8 -4 11 -10z m42 -58 c-9 -11 -12 -10 -19 3 -5 8
-13 13 -19 10 -5 -4 -9 -2 -9 3 0 17 11 20 35 8 18 -8 21 -14 12 -24z m63 18
c0 -5 -2 -10 -4 -10 -3 0 -8 5 -11 10 -3 6 -1 10 4 10 6 0 11 -4 11 -10z m0
-35 c0 -12 -29 -3 -34 10 -4 13 -2 14 14 5 11 -6 20 -13 20 -15z m-73 -31 c-3
-3 -12 -4 -19 -1 -8 3 -5 6 6 6 11 1 17 -2 13 -5z m13 -34 c0 -5 -8 -10 -17
-10 -15 0 -16 2 -3 10 19 12 20 12 20 0z m-33 -52 c2 -17 0 -19 -7 -8 -5 8 -6
18 -4 22 8 12 10 10 11 -14z m-34 -28 c-3 -12 -8 -19 -11 -16 -5 6 5 36 12 36
2 0 2 -9 -1 -20z m-41 -22 c-7 -7 -12 -8 -12 -2 0 14 12 26 19 19 2 -3 -1 -11
-7 -17z m138 -13 c0 -5 -5 -3 -10 5 -5 8 -10 20 -10 25 0 6 5 3 10 -5 5 -8 10
-19 10 -25z m-139 -25 c7 0 10 -3 7 -6 -11 -10 -46 19 -40 34 4 12 7 10 13 -6
5 -12 14 -22 20 -22z m39 8 c0 -6 -6 -5 -15 2 -8 7 -15 14 -15 16 0 2 7 1 15
-2 8 -4 15 -11 15 -16z m-30 -60 c0 -5 -7 -3 -15 6 -8 8 -15 18 -15 22 0 3 7
1 15 -6 8 -7 15 -17 15 -22z m-40 -32 c0 -3 -4 -8 -10 -11 -5 -3 -10 -1 -10 4
0 6 5 11 10 11 6 0 10 -2 10 -4z m-105 -91 c12 -9 14 -14 6 -13 -15 3 -81 63
-81 74 0 3 12 -6 28 -20 15 -14 36 -33 47 -41z m105 51 c0 -3 -4 -8 -10 -11
-5 -3 -10 -1 -10 4 0 6 5 11 10 11 6 0 10 -2 10 -4z"/>
<path d="M3994 4372 c-38 -27 -100 -70 -139 -97 -177 -123 -378 -280 -460
-358 l-90 -85 30 -30 c54 -55 419 -322 427 -314 11 11 309 860 315 900 3 17 1
32 -4 32 -5 0 -41 -22 -79 -48z"/>
<path d="M515 3280 c3 -5 11 -10 16 -10 6 0 7 5 4 10 -3 6 -11 10 -16 10 -6 0
-7 -4 -4 -10z"/>
<path d="M165 3270 c-3 -5 -1 -10 4 -10 6 0 11 5 11 10 0 6 -2 10 -4 10 -3 0
-8 -4 -11 -10z"/>
<path d="M500 3255 c7 -9 15 -13 17 -11 7 7 -7 26 -19 26 -6 0 -6 -6 2 -15z"/>
<path d="M709 3241 c14 -25 20 -27 17 -4 -2 9 -8 19 -15 21 -10 3 -10 0 -2
-17z"/>
<path d="M283 3237 c4 -11 0 -21 -13 -29 -24 -15 -26 -25 -6 -25 8 0 14 5 13
11 -1 6 3 10 10 9 19 -4 23 25 6 39 -15 11 -16 11 -10 -5z"/>
<path d="M1648 3144 c-4 -174 -2 -184 29 -215 30 -30 173 -112 181 -104 7 7
-34 219 -59 302 -23 77 -14 69 -136 120 -10 4 -14 -21 -15 -103z"/>
<path d="M1120 3233 c0 -1 9 -7 19 -12 13 -8 22 -7 29 2 8 9 3 12 -19 12 -16
1 -29 0 -29 -2z"/>
<path d="M447 3217 c-3 -7 3 -13 14 -14 12 -1 16 3 12 13 -6 18 -19 18 -26 1z"/>
<path d="M505 3211 c-3 -5 -1 -12 5 -16 5 -3 10 1 10 9 0 18 -6 21 -15 7z"/>
<path d="M8 3192 c-12 -15 -11 -16 5 -3 16 13 22 8 18 -13 -1 -5 5 -3 14 4 8
7 13 15 10 18 -12 13 -35 9 -47 -6z"/>
<path d="M377 3204 c-3 -5 1 -15 9 -22 16 -14 18 -5 5 17 -5 7 -11 9 -14 5z"/>
<path d="M610 3188 c0 -19 2 -20 10 -8 13 19 13 30 0 30 -5 0 -10 -10 -10 -22z"/>
<path d="M726 3201 c-3 -5 1 -14 9 -21 12 -10 15 -9 15 4 0 11 5 14 12 10 7
-4 8 -3 4 4 -8 14 -33 16 -40 3z"/>
<path d="M810 3195 c0 -8 4 -15 8 -15 5 0 9 7 9 15 0 8 -4 15 -9 15 -4 0 -8
-7 -8 -15z"/>
<path d="M1170 3201 c0 -6 4 -13 10 -16 6 -3 7 1 4 9 -7 18 -14 21 -14 7z"/>
<path d="M64 3175 c-17 -18 -19 -27 -10 -37 6 -7 10 -11 9 -9 -2 2 1 9 6 15 7
9 22 56 18 56 -1 0 -12 -11 -23 -25z"/>
<path d="M206 3182 c-3 -4 4 -9 15 -9 23 -2 25 3 4 10 -8 4 -16 3 -19 -1z"/>
<path d="M527 3177 c-3 -8 -1 -20 5 -28 8 -11 9 -10 4 4 -6 20 4 22 24 5 8 -7
6 -3 -4 10 -22 26 -22 26 -29 9z"/>
<path d="M944 3179 c-4 -7 -3 -9 4 -5 5 3 13 0 15 -6 4 -9 6 -10 6 -1 1 17
-16 25 -25 12z"/>
<path d="M295 3170 c-3 -5 -1 -10 4 -10 6 0 11 5 11 10 0 6 -2 10 -4 10 -3 0
-8 -4 -11 -10z"/>
<path d="M443 3173 c4 -3 1 -13 -6 -22 -11 -14 -10 -14 5 -2 16 12 16 31 1 31
-4 0 -3 -3 0 -7z"/>
<path d="M1006 3167 c3 -10 9 -15 12 -12 3 3 0 11 -7 18 -10 9 -11 8 -5 -6z"/>
<path d="M5 3159 c-4 -6 -5 -12 -2 -15 2 -3 7 2 10 11 7 17 1 20 -8 4z"/>
<path d="M250 3161 c0 -6 4 -13 10 -16 6 -3 7 1 4 9 -7 18 -14 21 -14 7z"/>
<path d="M861 3144 c0 -11 3 -14 6 -6 3 7 2 16 -1 19 -3 4 -6 -2 -5 -13z"/>
<path d="M1370 3140 c0 -5 7 -10 16 -10 8 0 12 5 9 10 -3 6 -10 10 -16 10 -5
0 -9 -4 -9 -10z"/>
<path d="M3328 3143 c7 -3 16 -2 19 1 4 3 -2 6 -13 5 -11 0 -14 -3 -6 -6z"/>
<path d="M790 3129 c0 -5 5 -7 10 -4 6 3 10 8 10 11 0 2 -4 4 -10 4 -5 0 -10
-5 -10 -11z"/>
<path d="M1226 3123 c-6 -14 -5 -15 5 -6 7 7 10 15 7 18 -3 3 -9 -2 -12 -12z"/>
<path d="M355 3120 c3 -5 8 -10 11 -10 2 0 4 5 4 10 0 6 -5 10 -11 10 -5 0 -7
-4 -4 -10z"/>
<path d="M89 3118 c-8 -27 -5 -36 9 -30 10 4 12 7 4 10 -7 2 -10 8 -6 13 3 5
3 9 0 9 -3 0 -6 -1 -7 -2z"/>
<path d="M1035 3109 c-4 -6 -5 -12 -2 -15 2 -3 7 2 10 11 7 17 1 20 -8 4z"/>
<path d="M1195 3090 c-3 -6 1 -7 9 -4 18 7 21 14 7 14 -6 0 -13 -4 -16 -10z"/>
<path d="M1330 3031 c0 -7 -5 -9 -12 -5 -7 5 -8 3 -3 -5 5 -9 10 -10 18 -2 6
6 8 14 4 18 -4 3 -7 1 -7 -6z"/>
<path d="M1260 2865 c-7 -9 -11 -17 -9 -20 3 -2 10 5 17 15 14 24 10 26 -8 5z"/>
<path d="M1226 2814 c-5 -14 -4 -15 9 -4 17 14 19 20 6 20 -5 0 -12 -7 -15
-16z"/>
<path d="M3955 2630 c28 -12 37 -12 30 0 -3 6 -16 10 -28 9 -21 0 -21 -1 -2
-9z"/>
<path d="M1221 2334 c0 -11 3 -14 6 -6 3 7 2 16 -1 19 -3 4 -6 -2 -5 -13z"/>
<path d="M1730 1460 c0 -5 5 -10 10 -10 6 0 10 5 10 10 0 6 -4 10 -10 10 -5 0
-10 -4 -10 -10z"/>
<path d="M1800 1376 c0 -2 8 -10 18 -17 15 -13 16 -12 3 4 -13 16 -21 21 -21
13z"/>
<path d="M2077 1203 c-4 -3 -7 -11 -7 -17 0 -6 5 -5 12 2 6 6 9 14 7 17 -3 3
-9 2 -12 -2z"/>
<path d="M2783 1132 c10 -10 17 -25 18 -33 0 -8 4 -6 9 6 5 14 3 24 -8 33 -24
19 -37 14 -19 -6z"/>
<path d="M2617 1116 c-4 -10 -1 -13 8 -9 8 3 12 9 9 14 -7 12 -11 11 -17 -5z"/>
<path d="M2960 1123 c0 -5 9 -18 20 -28 11 -10 20 -16 20 -13 0 3 -9 15 -20
28 -11 13 -20 19 -20 13z"/>
<path d="M3024 1115 c-7 -18 4 -37 17 -29 6 4 6 10 0 18 -6 7 -8 16 -4 19 3 4
3 7 -1 7 -3 0 -9 -7 -12 -15z"/>
<path d="M3210 1105 c0 -21 16 -27 29 -11 9 11 7 15 -9 19 -13 3 -20 0 -20 -8z"/>
<path d="M2936 1101 c-3 -5 1 -11 9 -14 9 -4 12 -1 8 9 -6 16 -10 17 -17 5z"/>
<path d="M2845 1090 c3 -5 8 -10 11 -10 2 0 4 5 4 10 0 6 -5 10 -11 10 -5 0
-7 -4 -4 -10z"/>
<path d="M3222 1059 c2 -7 10 -15 17 -17 8 -3 12 1 9 9 -2 7 -10 15 -17 17 -8
3 -12 -1 -9 -9z"/>
<path d="M3170 1049 c0 -5 5 -7 10 -4 6 3 10 8 10 11 0 2 -4 4 -10 4 -5 0 -10
-5 -10 -11z"/>
<path d="M3280 1045 c0 -8 4 -15 10 -15 5 0 7 7 4 15 -4 8 -8 15 -10 15 -2 0
-4 -7 -4 -15z"/>
<path d="M3245 1010 c3 -5 8 -10 11 -10 2 0 4 5 4 10 0 6 -5 10 -11 10 -5 0
-7 -4 -4 -10z"/>
<path d="M3210 999 c0 -5 5 -7 10 -4 6 3 10 8 10 11 0 2 -4 4 -10 4 -5 0 -10
-5 -10 -11z"/>
<path d="M3420 1000 c0 -4 7 -11 16 -14 22 -9 26 -8 22 6 -5 13 -38 20 -38 8z"/>
<path d="M3316 964 c-5 -14 -4 -15 9 -4 17 14 19 20 6 20 -5 0 -12 -7 -15 -16z"/>
<path d="M3420 975 c0 -5 5 -17 10 -25 5 -8 10 -10 10 -5 0 6 -5 17 -10 25 -5
8 -10 11 -10 5z"/>
<path d="M3383 946 c0 -7 6 -13 14 -13 7 0 13 4 13 8 0 4 -6 9 -13 12 -8 3
-14 0 -14 -7z"/>
<path d="M3506 922 c-3 -5 1 -9 9 -9 8 0 15 4 15 9 0 4 -4 8 -9 8 -6 0 -12 -4
-15 -8z"/>
<path d="M3573 923 c-7 -2 -13 -14 -13 -24 0 -25 16 -17 23 11 3 11 4 20 4 19
-1 0 -8 -3 -14 -6z"/>
<path d="M3425 910 c3 -5 8 -10 11 -10 2 0 4 5 4 10 0 6 -5 10 -11 10 -5 0 -7
-4 -4 -10z"/>
<path d="M3510 889 c0 -7 -10 -9 -27 -5 -23 5 -25 4 -10 -5 10 -6 25 -8 34 -5
8 4 22 1 31 -6 13 -11 14 -10 3 10 -12 23 -31 30 -31 11z"/>
<path d="M3646 834 c-3 -8 -10 -12 -16 -9 -11 7 -76 -52 -67 -61 3 -3 14 4 24
15 21 25 30 27 30 6 0 -8 -4 -15 -8 -15 -4 0 -10 -8 -13 -17 -6 -16 -6 -16 11
-1 13 12 23 14 36 7 24 -14 21 3 -5 25 l-22 19 22 10 c12 6 22 16 22 24 0 18
-6 17 -14 -3z"/>
<path d="M3555 810 c-3 -5 -1 -10 4 -10 6 0 11 5 11 10 0 6 -2 10 -4 10 -3 0
-8 -4 -11 -10z"/>
<path d="M3517 787 c-3 -8 1 -14 9 -14 16 0 19 13 5 21 -5 3 -11 0 -14 -7z"/>
<path d="M3520 750 c0 -5 5 -10 11 -10 5 0 7 5 4 10 -3 6 -8 10 -11 10 -2 0
-4 -4 -4 -10z"/>
<path d="M3584 718 c-4 -7 -3 -8 4 -4 7 4 12 3 12 -2 0 -5 7 -9 15 -9 20 0 19
4 -4 17 -14 7 -22 7 -27 -2z"/>
<path d="M3446 707 c3 -10 9 -15 12 -12 3 3 0 11 -7 18 -10 9 -11 8 -5 -6z"/>
<path d="M3504 698 c-4 -7 -4 -10 1 -6 4 4 15 2 24 -5 14 -11 14 -10 2 6 -16
20 -18 21 -27 5z"/>
<path d="M3610 680 c0 -5 5 -10 11 -10 5 0 7 5 4 10 -3 6 -8 10 -11 10 -2 0
-4 -4 -4 -10z"/>
<path d="M3581 664 c0 -11 3 -14 6 -6 3 7 2 16 -1 19 -3 4 -6 -2 -5 -13z"/>
<path d="M3690 669 c0 -6 -7 -8 -16 -5 -17 7 -44 -15 -44 -36 0 -8 4 -6 11 5
7 12 17 15 37 11 15 -4 24 -3 20 1 -4 5 -3 14 3 22 9 9 8 13 0 13 -6 0 -11 -5
-11 -11z"/>
<path d="M3713 637 c1 -8 -9 -11 -28 -9 -16 2 -27 0 -23 -4 4 -3 3 -15 -3 -25
-7 -15 -6 -17 6 -13 8 3 12 10 9 15 -3 5 0 9 5 9 6 0 11 -7 11 -16 0 -11 9 -8
36 13 35 26 37 26 50 8 15 -20 19 -9 6 13 -11 17 -72 25 -69 9z"/>
<path d="M3560 630 c0 -5 5 -10 10 -10 6 0 10 5 10 10 0 6 -4 10 -10 10 -5 0
-10 -4 -10 -10z"/>
<path d="M3740 595 c0 -22 -22 -65 -33 -65 -6 0 -20 8 -31 18 -13 11 -17 12
-10 2 6 -8 10 -23 9 -32 -4 -22 0 -22 36 -1 24 14 40 38 44 63 0 3 4 11 8 18
5 8 3 12 -7 12 -9 0 -16 -7 -16 -15z"/>
<path d="M3715 580 c3 -5 8 -10 11 -10 2 0 4 5 4 10 0 6 -5 10 -11 10 -5 0 -7
-4 -4 -10z"/>
<path d="M3625 572 c-16 -11 -12 -29 10 -47 14 -11 15 -15 5 -13 -16 3 -20 -2
-20 -24 0 -9 4 -8 10 2 9 13 10 13 11 0 1 -8 1 -19 0 -23 -1 -4 9 -2 21 5 20
11 21 13 5 16 -10 2 -16 9 -15 15 1 7 -3 22 -10 35 -7 12 -10 27 -7 32 7 12 4
12 -10 2z"/>
<path d="M3555 559 c-4 -6 -14 -8 -24 -4 -11 4 -13 3 -5 -5 12 -12 44 -4 44
11 0 12 -7 11 -15 -2z"/>
<path d="M3586 551 c-4 -5 -3 -16 0 -25 4 -11 1 -16 -10 -16 -9 0 -16 -4 -16
-10 0 -11 29 -14 31 -2 3 16 5 62 3 62 -2 0 -5 -4 -8 -9z"/>
<path d="M3410 501 c0 -6 4 -13 10 -16 6 -3 7 1 4 9 -7 18 -14 21 -14 7z"/>
<path d="M3575 470 c3 -5 8 -10 11 -10 2 0 4 5 4 10 0 6 -5 10 -11 10 -5 0 -7
-4 -4 -10z"/>
<path d="M3450 466 c0 -2 7 -9 15 -16 9 -7 15 -8 15 -2 0 5 -7 12 -15 16 -8 3
-15 4 -15 2z"/>
<path d="M3543 446 c4 -10 1 -13 -9 -9 -7 3 -14 1 -14 -5 0 -6 8 -9 18 -7 9 2
23 4 31 4 11 1 11 4 1 16 -16 19 -34 20 -27 1z"/>
<path d="M3655 410 c-3 -5 -2 -10 4 -10 5 0 13 5 16 10 3 6 2 10 -4 10 -5 0
-13 -4 -16 -10z"/>
<path d="M3565 400 c3 -5 8 -10 11 -10 2 0 4 5 4 10 0 6 -5 10 -11 10 -5 0 -7
-4 -4 -10z"/>
<path d="M3675 389 c-4 -5 -16 -7 -28 -4 -16 4 -14 1 6 -10 33 -19 67 -27 67
-17 0 15 -39 41 -45 31z"/>
<path d="M3573 358 c-2 -18 0 -20 7 -8 12 18 13 30 2 30 -4 0 -9 -10 -9 -22z"/>
<path d="M3485 361 c-3 -5 0 -13 6 -17 7 -4 9 -3 5 4 -3 5 0 13 6 15 9 4 10 6
1 6 -6 1 -14 -3 -18 -8z"/>
<path d="M3582 320 c-9 -15 -8 -19 5 -24 8 -4 13 -13 9 -21 -3 -8 -2 -15 3
-15 14 0 19 46 6 63 -10 14 -12 14 -23 -3z"/>
<path d="M3538 311 c-16 -16 -16 -17 0 -18 11 -1 18 6 19 18 2 23 3 22 -19 0z"/>
<path d="M3487 313 c-4 -3 -7 -11 -7 -17 0 -6 5 -5 12 2 6 6 9 14 7 17 -3 3
-9 2 -12 -2z"/>
<path d="M3563 265 c0 -8 4 -15 9 -15 4 0 8 4 8 9 0 6 -4 12 -8 15 -5 3 -9 -1
-9 -9z"/>
<path d="M3435 240 c-3 -5 -2 -10 4 -10 5 0 13 5 16 10 3 6 2 10 -4 10 -5 0
-13 -4 -16 -10z"/>
<path d="M3533 236 c8 -20 -4 -28 -20 -15 -10 9 -13 8 -13 -4 0 -9 -8 -20 -17
-26 -15 -8 -16 -12 -4 -23 8 -7 11 -8 8 -2 -4 6 2 19 13 29 11 10 20 14 20 10
0 -4 9 0 20 10 19 17 19 35 -2 35 -5 0 -8 -6 -5 -14z"/>
<path d="M3577 210 c3 -11 15 -26 27 -32 11 -6 18 -7 14 -3 -4 4 -1 13 8 19
13 10 12 12 -8 13 -12 1 -24 7 -26 13 -7 19 -20 10 -15 -10z"/>
<path d="M3435 190 c-3 -6 1 -7 9 -4 18 7 21 14 7 14 -6 0 -13 -4 -16 -10z"/>
<path d="M3545 190 c3 -5 11 -10 16 -10 6 0 7 5 4 10 -3 6 -11 10 -16 10 -6 0
-7 -4 -4 -10z"/>
<path d="M3326 173 c-6 -14 -5 -15 5 -6 7 7 10 15 7 18 -3 3 -9 -2 -12 -12z"/>
<path d="M3260 150 c8 -5 20 -10 25 -10 6 0 3 5 -5 10 -8 5 -19 10 -25 10 -5
0 -3 -5 5 -10z"/>
<path d="M3376 151 c-3 -5 1 -14 8 -20 12 -10 13 -8 9 8 -6 23 -9 25 -17 12z"/>
<path d="M3356 115 c4 -8 -1 -17 -9 -21 -12 -4 -12 -10 -3 -30 12 -26 21 -30
32 -13 3 6 1 15 -5 19 -8 4 -10 17 -5 33 4 17 2 27 -5 27 -6 0 -8 -7 -5 -15z"/>
<path d="M3290 105 c0 -8 2 -15 4 -15 2 0 6 7 10 15 3 8 1 15 -4 15 -6 0 -10
-7 -10 -15z"/>
<path d="M3257 85 c-4 -8 -2 -17 3 -20 6 -4 10 -1 10 5 0 6 5 8 13 4 8 -5 8
-2 -2 9 -16 21 -17 21 -24 2z"/>
<path d="M3380 86 c0 -8 8 -16 18 -18 13 -3 9 -9 -18 -26 -33 -21 -35 -21 -42
-3 -3 10 -13 21 -22 24 -21 8 -21 -9 1 -21 13 -8 11 -11 -15 -17 -18 -3 -30
-11 -26 -16 3 -5 10 -7 15 -3 16 9 69 11 69 2 0 -4 7 -5 15 -2 8 4 13 10 10
14 -3 5 8 2 25 -6 32 -16 97 -15 93 1 -4 14 -46 15 -56 1 -6 -7 -7 -4 -3 6 3
12 0 18 -10 18 -11 0 -15 6 -12 18 3 11 -2 23 -13 30 -24 15 -29 15 -29 -2z"/>
<path d="M3479 92 c-2 -7 -13 -14 -24 -16 -28 -4 -28 -19 0 -33 21 -9 27 -8
34 5 5 10 5 26 1 37 -4 12 -8 15 -11 7z"/>
<path d="M3216 56 c3 -9 11 -16 16 -16 13 0 5 23 -10 28 -7 2 -10 -2 -6 -12z"/>
<path d="M3187 43 c-4 -3 -7 -15 -7 -26 0 -25 13 -14 17 13 3 21 1 24 -10 13z"/>
<path d="M3250 34 c0 -8 5 -12 10 -9 6 4 8 11 5 16 -9 14 -15 11 -15 -7z"/>
<path d="M3140 20 c0 -5 5 -10 11 -10 5 0 7 5 4 10 -3 6 -8 10 -11 10 -2 0 -4
-4 -4 -10z"/>
<path d="M3217 19 c7 -7 15 -10 18 -7 3 3 -2 9 -12 12 -14 6 -15 5 -6 -5z"/>
</g>
</svg>
